<?xml version="1.0" standalone="no"?>
<!DOCTYPE svg PUBLIC "-//W3C//DTD SVG 20010904//EN"
 "http://www.w3.org/TR/2001/REC-SVG-20010904/DTD/svg10.dtd">
<svg version="1.0" xmlns="http://www.w3.org/2000/svg"
 width="3000.000000pt" height="2100.000000pt" viewBox="0 0 3000.000000 2100.000000"
 preserveAspectRatio="xMidYMid meet">
<metadata>
Created by potrace 1.16, written by Peter Selinger 2001-2019
</metadata>
<g transform="translate(0.000000,2100.000000) scale(0.100000,-0.100000)"
fill="#000000" stroke="none">
<path d="M14670 15036 c-138 -32 -270 -92 -380 -171 -36 -26 -475 -457 -976
-959 -956 -957 -963 -964 -1039 -1129 -64 -139 -80 -221 -79 -412 0 -191 14
-261 78 -400 76 -165 86 -176 1016 -1108 487 -489 921 -918 965 -953 394 -317
934 -290 1309 64 31 29 56 56 56 59 0 10 -284 293 -293 293 -5 0 -34 -21 -65
-47 -116 -94 -252 -138 -402 -130 -115 6 -204 33 -291 87 -84 54 -1772 1747
-1823 1830 -106 171 -113 392 -19 583 34 67 74 110 597 635 l561 563 325 -312
c179 -171 347 -332 373 -358 l49 -46 38 43 c76 85 105 188 89 317 -17 135 -43
171 -313 437 l-241 238 150 148 c86 85 176 163 210 184 177 107 384 114 574
21 67 -33 99 -60 264 -222 l187 -185 159 155 c87 85 159 157 160 160 2 10
-395 400 -455 445 -74 56 -216 126 -314 155 -93 27 -380 36 -470 15z"/>
<path d="M15795 13893 c-175 -180 -410 -418 -520 -529 -173 -172 -207 -210
-236 -270 -33 -66 -34 -72 -34 -189 0 -136 13 -177 84 -257 l38 -42 90 84 c50
47 274 264 499 483 l409 397 436 -437 c411 -412 438 -442 473 -513 96 -199 82
-424 -38 -600 -27 -38 -209 -229 -449 -468 l-403 -403 -330 333 c-181 183
-620 627 -973 986 -354 359 -648 651 -653 650 -4 -2 -188 -180 -408 -396 -379
-373 -401 -397 -437 -469 -37 -75 -38 -80 -38 -187 0 -99 3 -117 26 -166 27
-58 83 -130 101 -130 11 0 109 92 533 499 l220 211 822 -822 823 -823 -152
-152 -153 -153 150 -150 150 -150 743 742 c409 409 765 772 793 808 262 346
262 834 0 1180 -28 36 -319 334 -649 663 l-599 599 -318 -329z"/>
<path d="M16029 13016 c-57 -20 -106 -54 -139 -96 -48 -60 -60 -100 -60 -195
l0 -86 138 3 137 3 3 193 2 192 -22 0 c-13 -1 -39 -7 -59 -14z"/>
<path d="M16142 12839 l3 -194 138 -3 137 -3 0 89 c0 75 -4 96 -26 140 -40 81
-125 144 -213 158 l-41 7 2 -194z"/>
<path d="M15830 12470 l0 -140 140 0 140 0 0 140 0 140 -140 0 -140 0 0 -140z"/>
<path d="M16140 12470 l0 -140 145 0 145 0 0 140 0 140 -145 0 -145 0 0 -140z"/>
<path d="M14089 11965 c-65 -21 -125 -64 -164 -120 -36 -51 -41 -66 -50 -182
l-5 -73 145 0 145 0 0 195 c0 150 -3 195 -12 194 -7 0 -34 -7 -59 -14z"/>
<path d="M14190 11786 l0 -196 140 0 140 0 0 83 c0 65 -5 92 -24 132 -40 85
-124 149 -223 170 l-33 7 0 -196z"/>
<path d="M13870 11415 l0 -145 145 0 145 0 0 145 0 145 -145 0 -145 0 0 -145z"/>
<path d="M14190 11415 l0 -145 140 0 140 0 0 145 0 145 -140 0 -140 0 0 -145z"/>
<path d="M12651 9064 c-76 -38 -106 -87 -106 -175 0 -60 3 -71 31 -106 82
-101 208 -119 312 -43 104 75 109 206 13 293 -69 62 -163 74 -250 31z"/>
<path d="M9120 7960 l0 -1090 170 0 170 0 0 465 0 465 490 0 490 0 0 125 0
125 -490 0 -490 0 0 375 0 375 570 0 570 0 0 125 0 125 -740 0 -740 0 0 -1090z"/>
<path d="M14660 7960 l0 -1090 165 0 165 0 0 456 0 456 158 -4 c136 -3 163 -6
189 -23 17 -11 178 -204 357 -430 221 -278 338 -417 363 -432 35 -21 50 -23
206 -23 103 0 167 4 165 10 -7 21 -735 914 -756 928 -24 15 -22 16 69 47 112
38 145 54 224 110 112 81 183 175 227 304 32 93 32 256 0 357 -71 230 -288
373 -627 413 -50 6 -270 11 -497 11 l-408 0 0 -1090z m903 826 c151 -34 240
-94 289 -194 31 -63 33 -73 33 -172 0 -99 -2 -110 -33 -172 -53 -108 -150
-179 -299 -220 -66 -17 -115 -21 -320 -25 l-243 -5 0 407 0 408 253 -6 c173
-4 273 -10 320 -21z"/>
<path d="M18525 8890 c-17 -19 -54 -226 -80 -441 -7 -66 6 -60 -177 -80 l-108
-12 0 -72 c0 -101 5 -105 153 -105 l116 0 3 -533 3 -532 33 -67 c39 -80 101
-138 181 -170 49 -20 74 -23 196 -23 154 0 227 17 330 76 96 55 94 50 50 116
-49 75 -75 103 -95 103 -10 0 -44 -14 -77 -31 -85 -44 -171 -50 -232 -17 -83
45 -81 27 -84 586 l-2 492 243 0 242 0 0 105 0 105 -242 0 -243 0 3 260 3 260
-99 0 c-86 0 -101 -3 -117 -20z"/>
<path d="M11368 8430 c-128 -22 -265 -79 -382 -160 -105 -73 -103 -69 -63
-132 43 -67 57 -79 104 -85 29 -3 49 2 83 21 193 109 271 136 397 136 137 0
222 -37 280 -123 37 -55 51 -112 59 -246 l7 -98 -149 -6 c-457 -18 -797 -159
-873 -362 -19 -50 -22 -75 -19 -145 7 -149 78 -258 209 -324 96 -48 160 -59
308 -53 189 7 310 49 462 160 47 35 76 51 80 44 3 -7 12 -39 19 -71 8 -41 21
-69 40 -88 27 -27 33 -28 125 -28 l96 0 -4 558 c-3 482 -5 564 -20 612 -61
203 -202 338 -398 385 -69 16 -278 19 -361 5z m482 -1024 l0 -155 -56 -46
c-124 -100 -267 -155 -409 -155 -175 0 -275 75 -278 208 -3 136 98 213 346
262 111 22 237 37 335 39 l62 1 0 -154z"/>
<path d="M14017 8430 c-103 -26 -230 -126 -304 -241 l-38 -58 -11 113 c-7 75
-16 123 -27 140 -17 26 -19 26 -137 26 l-120 0 0 -770 0 -770 155 0 155 0 0
489 0 488 36 72 c46 93 120 173 192 208 55 27 62 28 222 28 l165 0 12 25 c6
14 15 69 19 122 l7 98 -39 17 c-45 19 -227 28 -287 13z"/>
<path d="M17108 8430 c-128 -22 -265 -79 -382 -160 -105 -73 -104 -70 -66
-130 61 -94 109 -111 191 -65 196 110 270 135 396 135 149 0 244 -49 298 -154
27 -54 30 -68 33 -186 l4 -127 -143 -6 c-427 -18 -752 -143 -854 -328 -28 -51
-30 -61 -30 -164 0 -104 2 -113 32 -171 54 -104 151 -176 283 -210 81 -21 295
-15 385 10 85 24 194 79 269 135 35 26 68 51 74 55 7 4 17 -21 27 -69 14 -60
23 -80 47 -100 27 -23 38 -25 124 -25 l95 0 -3 553 c-4 607 -4 600 -69 735
-62 127 -207 236 -356 267 -73 16 -275 18 -355 5z m474 -1029 l-3 -159 -60
-47 c-132 -104 -272 -151 -423 -143 -164 8 -249 81 -250 213 -1 79 31 131 107
175 110 64 350 114 572 119 l60 1 -3 -159z"/>
<path d="M20035 8426 c-310 -61 -527 -266 -596 -562 -19 -81 -21 -114 -16
-237 6 -161 22 -234 77 -352 125 -270 390 -425 725 -425 178 0 366 42 495 111
69 37 170 115 170 132 0 6 -25 38 -54 70 -68 71 -85 72 -203 13 -167 -85 -318
-116 -459 -97 -272 38 -410 195 -448 509 l-7 52 579 0 c485 0 581 2 598 14 17
13 19 27 18 123 -2 195 -58 338 -184 463 -85 85 -172 136 -290 170 -97 28
-303 36 -405 16z m270 -206 c187 -30 307 -154 330 -342 l7 -58 -455 0 -455 0
15 58 c22 83 79 185 130 233 102 94 265 136 428 109z"/>
<path d="M12600 7640 l0 -770 155 0 155 0 0 770 0 770 -155 0 -155 0 0 -770z"/>
<path d="M9080 6290 l0 -330 45 0 45 0 2 245 3 245 108 -195 c89 -160 113
-196 134 -202 35 -8 39 -2 159 217 l99 182 3 -246 2 -246 40 0 40 0 0 330 0
330 -37 0 c-21 0 -43 -4 -49 -8 -6 -4 -66 -106 -132 -227 -67 -121 -122 -215
-122 -209 0 15 -231 427 -244 436 -6 4 -30 8 -53 8 l-43 0 0 -330z"/>
<path d="M10087 6606 c-90 -33 -160 -105 -192 -197 -22 -62 -19 -187 5 -253
28 -73 88 -139 158 -172 75 -36 201 -39 273 -7 174 78 244 295 154 479 -28 58
-74 102 -138 136 -54 28 -202 36 -260 14z m224 -99 c29 -16 54 -40 74 -72 28
-45 30 -55 30 -144 0 -80 -4 -103 -22 -138 -66 -123 -243 -149 -350 -50 -32
29 -63 118 -63 181 0 63 20 133 49 174 51 72 192 96 282 49z"/>
<path d="M10630 6290 l0 -330 56 0 55 0 -3 135 -3 135 43 0 c42 0 43 -1 105
-86 133 -186 131 -184 187 -184 28 0 50 3 50 8 0 4 -45 68 -99 142 l-100 134
49 28 c89 51 123 152 78 238 -43 85 -114 110 -303 110 l-115 0 0 -330z m289
226 c48 -26 65 -91 36 -146 -22 -43 -63 -60 -145 -60 l-70 0 0 110 0 110 75 0
c46 0 87 -6 104 -14z"/>
<path d="M11130 6575 l0 -45 105 0 105 0 0 -285 0 -285 50 0 50 0 0 285 0 285
105 0 105 0 0 45 0 45 -260 0 -260 0 0 -45z"/>
<path d="M11900 6604 c-120 -38 -200 -148 -208 -286 -8 -133 33 -233 122 -297
67 -47 120 -63 216 -65 89 -1 156 17 213 56 27 19 27 19 27 144 l0 124 -110 0
-110 0 0 -34 c0 -39 11 -46 76 -46 l44 0 0 -65 c0 -62 -1 -66 -27 -77 -16 -6
-60 -13 -100 -16 -130 -8 -214 51 -244 171 -23 93 5 210 63 264 64 60 190 71
291 26 l60 -27 23 28 c13 15 24 31 24 35 0 9 -71 51 -115 68 -42 16 -191 15
-245 -3z"/>
<path d="M12451 6333 c-63 -159 -122 -306 -132 -327 -11 -22 -19 -41 -19 -43
0 -2 24 -3 53 -1 l52 3 34 88 34 88 141 -3 140 -3 28 -75 c16 -40 34 -80 40
-87 6 -7 30 -13 55 -13 38 0 44 3 39 18 -3 9 -62 157 -130 327 l-123 310 -49
3 -49 3 -114 -288z m221 14 c27 -71 48 -131 45 -133 -2 -3 -51 -3 -109 -2
l-104 3 55 143 c31 79 57 138 59 130 2 -7 26 -71 54 -141z"/>
<path d="M13145 6595 c-76 -31 -146 -103 -171 -177 -24 -69 -24 -186 -1 -255
65 -186 303 -265 505 -167 l52 25 0 130 0 129 -106 0 -105 0 3 -37 3 -38 58
-3 57 -3 0 -63 0 -64 -40 -16 c-55 -22 -164 -21 -215 3 -51 23 -101 79 -114
128 -20 69 -13 172 13 230 37 78 86 107 193 112 75 3 90 0 139 -24 61 -30 73
-29 93 8 13 24 12 28 -10 46 -76 64 -243 81 -354 36z"/>
<path d="M13650 6290 l0 -330 205 0 205 0 0 40 0 40 -155 0 -155 0 0 105 0
105 125 0 125 0 0 40 0 40 -125 0 -125 0 0 100 0 100 155 0 155 0 0 45 0 45
-205 0 -205 0 0 -330z"/>
<path d="M14255 6606 c-67 -30 -115 -100 -115 -168 0 -17 9 -51 21 -75 24 -50
69 -79 173 -113 85 -28 116 -56 116 -104 0 -99 -133 -139 -234 -71 -48 32 -60
31 -86 -6 -26 -35 -25 -36 65 -86 42 -23 62 -27 125 -27 96 0 149 25 191 91
52 83 36 202 -34 248 -13 8 -62 29 -108 46 -99 36 -129 60 -129 104 0 87 112
122 206 64 42 -26 51 -24 70 13 15 30 15 32 -2 46 -65 50 -191 68 -259 38z"/>
<path d="M14880 6290 l0 -330 45 0 45 0 2 246 3 246 108 -196 c86 -154 114
-197 133 -202 13 -4 31 -1 39 6 8 7 61 97 117 201 l103 188 3 -244 2 -245 45
0 45 0 0 330 0 330 -42 0 c-24 0 -48 -4 -54 -8 -6 -4 -64 -104 -129 -223
l-119 -215 -21 40 c-71 132 -220 392 -229 398 -6 4 -30 8 -53 8 l-43 0 0 -330z"/>
<path d="M15897 6613 c-7 -11 -257 -642 -257 -648 0 -11 88 -4 98 8 6 7 24 47
40 87 l28 75 140 3 139 3 29 -78 c16 -43 33 -84 38 -90 6 -7 32 -13 59 -13 46
0 59 7 42 24 -4 4 -64 147 -133 319 l-125 312 -47 3 c-25 2 -48 -1 -51 -5z
m54 -401 c-57 -1 -106 -1 -108 2 -3 2 19 67 49 144 l53 139 55 -141 56 -141
-105 -3z"/>
<path d="M16330 6290 l0 -332 168 4 c198 4 243 18 317 100 57 64 80 130 79
233 -1 137 -57 231 -172 287 -66 33 -69 33 -229 37 l-163 3 0 -332z m371 205
c60 -42 83 -93 88 -189 4 -94 -9 -144 -51 -192 -45 -51 -88 -66 -208 -71
l-105 -5 0 247 0 247 117 -4 c111 -3 118 -4 159 -33z"/>
<path d="M17010 6290 l0 -330 205 0 205 0 0 40 0 40 -155 0 -155 0 0 105 0
105 125 0 125 0 0 40 0 40 -125 0 -125 0 0 100 0 100 155 0 155 0 0 45 0 45
-205 0 -205 0 0 -330z"/>
<path d="M17760 6290 l0 -332 158 4 c140 3 162 5 204 26 68 34 92 72 96 153 4
62 2 68 -28 103 -18 20 -43 39 -56 42 -31 8 -30 17 1 34 40 21 65 70 65 127 0
66 -30 110 -95 143 -45 22 -65 25 -197 28 l-148 4 0 -332z m299 225 c33 -16
41 -33 41 -81 0 -76 -45 -104 -165 -104 l-75 0 0 100 0 100 85 0 c56 0 96 -5
114 -15z m35 -294 c20 -19 26 -34 26 -68 0 -25 -4 -52 -10 -62 -16 -31 -83
-51 -170 -51 l-80 0 0 106 0 106 104 -4 c94 -3 107 -5 130 -27z"/>
<path d="M18340 6290 l0 -330 205 0 205 0 0 40 0 40 -155 0 -155 0 0 105 0
105 125 0 125 0 0 40 0 40 -125 0 -125 0 0 100 0 100 155 0 155 0 0 45 0 45
-205 0 -205 0 0 -330z"/>
<path d="M18790 6575 l0 -45 105 0 105 0 0 -285 0 -285 50 0 50 0 0 285 0 285
105 0 105 0 0 45 0 45 -260 0 -260 0 0 -45z"/>
<path d="M19320 6575 l0 -45 105 0 105 0 0 -285 0 -285 50 0 50 0 0 285 0 285
100 0 100 0 0 45 0 45 -255 0 -255 0 0 -45z"/>
<path d="M19920 6290 l0 -330 205 0 205 0 0 40 0 40 -155 0 -155 0 0 105 0
105 125 0 125 0 0 40 0 40 -125 0 -125 0 0 100 0 100 155 0 155 0 0 45 0 45
-205 0 -205 0 0 -330z"/>
<path d="M20440 6290 l0 -330 51 0 50 0 -3 135 -3 135 42 0 c42 0 44 -1 105
-87 135 -185 132 -183 188 -183 28 0 50 3 50 6 0 4 -45 67 -100 142 l-100 136
43 21 c64 32 100 91 101 162 1 98 -51 160 -155 182 -27 6 -99 11 -159 11
l-110 0 0 -330z m279 226 c48 -25 62 -80 37 -141 -20 -47 -60 -65 -148 -65
l-73 0 0 110 0 110 78 0 c48 0 89 -5 106 -14z"/>
</g>
</svg>
