<?xml version="1.0" standalone="no"?>
<!DOCTYPE svg PUBLIC "-//W3C//DTD SVG 20010904//EN"
 "http://www.w3.org/TR/2001/REC-SVG-20010904/DTD/svg10.dtd">
<svg version="1.0" xmlns="http://www.w3.org/2000/svg"
 width="3000.000000pt" height="2100.000000pt" viewBox="0 0 3000.000000 2100.000000"
 preserveAspectRatio="xMidYMid meet">
<metadata>
Created by potrace 1.16, written by Peter Selinger 2001-2019
</metadata>
<g transform="translate(0.000000,2100.000000) scale(0.100000,-0.100000)"
fill="#000000" stroke="none">
<path d="M8686 13159 c-88 -13 -168 -35 -250 -69 -168 -70 -171 -73 -1114
-1014 -486 -485 -911 -916 -946 -958 -81 -101 -130 -190 -174 -318 -35 -102
-36 -110 -40 -275 -3 -155 -1 -179 21 -266 27 -105 74 -210 138 -309 53 -82
1795 -1832 1912 -1921 101 -76 219 -133 343 -165 92 -24 112 -25 274 -22 165
4 180 6 267 36 161 55 267 118 382 228 l66 63 -149 149 -149 150 -51 -42 c-75
-61 -112 -81 -201 -112 -160 -54 -358 -28 -500 65 -39 26 -368 349 -926 908
-836 837 -868 871 -903 943 -69 143 -82 294 -37 440 42 133 60 154 644 738
l552 550 365 -354 365 -355 47 51 c70 75 91 140 86 267 -4 90 -8 110 -38 170
-29 60 -61 96 -272 303 l-240 235 164 161 c175 172 225 206 353 239 75 19 214
19 288 0 132 -34 179 -67 379 -264 l187 -184 158 153 c87 83 159 155 161 159
5 13 -413 418 -473 458 -205 137 -455 196 -689 162z"/>
<path d="M9626 11903 c-228 -236 -458 -470 -510 -521 -69 -68 -104 -111 -126
-155 -77 -158 -61 -330 40 -440 l48 -52 99 95 c54 52 251 244 438 425 187 182
365 354 396 383 l55 51 435 -437 c474 -477 478 -481 514 -633 32 -137 15 -271
-52 -409 -34 -71 -61 -100 -457 -498 -231 -232 -423 -421 -426 -420 -4 3 -537
542 -1632 1653 l-305 309 -397 -394 c-218 -216 -409 -414 -425 -439 -59 -92
-78 -239 -46 -347 17 -59 66 -136 99 -158 27 -17 -34 -71 550 489 109 105 202
192 208 194 6 2 377 -363 824 -810 l814 -814 -150 -150 -151 -151 146 -144
c80 -80 149 -146 153 -148 4 -1 345 337 758 750 799 801 815 819 883 982 61
148 74 215 74 386 0 170 -13 238 -73 383 -68 163 -93 192 -739 840 -333 334
-611 607 -618 607 -6 0 -198 -192 -427 -427z"/>
<path d="M15649 11646 c-92 -33 -144 -99 -144 -186 0 -183 244 -266 373 -126
49 54 67 110 52 165 -19 71 -71 123 -144 146 -60 18 -89 18 -137 1z"/>
<path d="M12110 10535 l0 -1085 170 0 170 0 0 465 0 465 485 0 485 0 0 125 0
125 -485 0 -485 0 0 370 0 370 565 0 565 0 0 125 0 125 -735 0 -735 0 0 -1085z"/>
<path d="M17610 10535 l0 -1085 165 0 165 0 0 451 0 451 163 -4 c158 -3 165
-4 195 -28 16 -14 175 -206 351 -427 176 -221 333 -410 348 -420 23 -15 54
-19 201 -21 120 -3 173 0 171 7 -8 22 -734 914 -757 929 -23 15 -23 16 42 32
141 37 300 135 379 234 178 225 166 559 -28 751 -113 111 -299 183 -533 205
-59 5 -277 10 -484 10 l-378 0 0 -1085z m773 835 c317 -26 457 -152 445 -399
-9 -181 -98 -289 -295 -358 -76 -26 -86 -27 -335 -31 l-258 -4 0 401 0 401
163 0 c89 0 215 -5 280 -10z"/>
<path d="M21450 11460 c-11 -11 -20 -23 -20 -27 -2 -32 -68 -464 -72 -468 -4
-4 -230 -35 -260 -35 -5 0 -8 -33 -8 -74 0 -100 8 -106 152 -106 l107 0 3
-517 3 -518 24 -60 c33 -82 115 -164 196 -195 81 -31 231 -38 335 -16 69 14
208 75 254 111 18 14 17 17 -30 90 -31 47 -58 78 -72 81 -15 4 -45 -5 -90 -27
-114 -58 -227 -44 -286 34 -21 28 -21 38 -24 523 l-3 494 241 0 240 0 0 105 0
105 -240 0 -240 0 0 260 0 260 -95 0 c-82 0 -98 -3 -115 -20z"/>
<path d="M9985 11146 c-61 -19 -96 -41 -137 -83 -57 -59 -78 -114 -78 -210 l0
-83 140 0 140 0 0 195 c0 214 4 203 -65 181z"/>
<path d="M10080 10965 l0 -195 140 0 140 0 0 83 c0 65 -5 92 -24 132 -41 86
-127 151 -223 169 l-33 6 0 -195z"/>
<path d="M14460 11014 c-166 -18 -304 -57 -408 -114 -66 -37 -181 -121 -182
-133 0 -21 73 -118 100 -132 42 -22 76 -13 169 42 110 65 184 92 282 103 148
17 244 -12 316 -94 51 -58 72 -126 80 -256 l6 -106 -164 -12 c-278 -20 -453
-58 -614 -136 -112 -54 -184 -117 -224 -198 -28 -54 -31 -71 -31 -149 0 -114
24 -179 92 -255 98 -106 227 -149 423 -141 185 8 306 51 456 160 47 35 76 51
80 44 3 -7 11 -38 18 -70 7 -32 23 -70 36 -84 21 -26 29 -27 124 -31 l101 -4
0 510 c0 588 -4 634 -70 768 -65 132 -187 229 -340 268 -60 15 -195 26 -250
20z m360 -1029 l0 -154 -62 -50 c-160 -130 -357 -180 -522 -134 -128 36 -190
162 -137 279 55 121 270 186 694 212 l27 2 0 -155z"/>
<path d="M17040 11013 c-150 -18 -280 -110 -379 -267 -26 -42 -31 -46 -31 -25
-1 64 -14 178 -24 209 -16 49 -44 60 -163 60 l-103 0 0 -770 0 -770 155 0 155
0 0 487 0 487 37 75 c93 189 239 261 462 231 122 -17 124 -15 139 126 7 58 10
110 7 114 -16 26 -176 53 -255 43z"/>
<path d="M20116 11009 c-179 -19 -339 -80 -475 -181 -39 -29 -71 -57 -71 -61
0 -22 73 -118 101 -132 41 -21 64 -15 172 46 127 72 218 100 330 101 105 2
156 -10 216 -50 83 -56 117 -137 127 -300 l7 -109 -124 -7 c-631 -35 -954
-229 -909 -543 23 -169 139 -285 327 -329 84 -20 277 -14 368 11 86 23 190 75
276 138 48 36 76 51 80 44 4 -7 12 -38 19 -70 6 -32 22 -70 35 -84 21 -26 29
-27 124 -31 l102 -4 -4 553 c-4 613 -2 595 -72 735 -99 201 -340 305 -629 273z
m404 -1024 l0 -154 -62 -51 c-130 -105 -281 -157 -432 -148 -130 9 -211 58
-236 146 -40 146 43 246 251 300 119 32 232 46 457 61 22 1 22 0 22 -154z"/>
<path d="M22940 10996 c-314 -67 -521 -272 -587 -580 -21 -101 -13 -334 16
-434 111 -385 450 -591 894 -543 128 14 256 49 352 97 72 36 174 109 182 131
4 10 -24 46 -89 115 -26 27 -73 22 -142 -15 -81 -44 -178 -82 -246 -96 -77
-17 -244 -15 -313 4 -210 55 -332 216 -362 478 l-6 57 569 0 c682 0 617 -15
616 142 -3 312 -183 551 -479 633 -82 23 -318 29 -405 11z m302 -207 c169 -35
284 -164 304 -338 l7 -61 -452 0 -451 0 6 28 c21 94 65 187 117 248 41 46 130
97 208 118 65 18 189 20 261 5z"/>
<path d="M15570 10220 l0 -770 150 0 150 0 0 770 0 770 -150 0 -150 0 0 -770z"/>
<path d="M9770 10600 l0 -140 140 0 140 0 0 140 0 140 -140 0 -140 0 0 -140z"/>
<path d="M10080 10600 l0 -140 140 0 140 0 0 140 0 140 -140 0 -140 0 0 -140z"/>
<path d="M8032 10095 c-43 -13 -102 -53 -135 -90 -43 -50 -61 -99 -65 -187
l-4 -88 141 0 141 0 0 190 c0 214 5 201 -78 175z"/>
<path d="M8140 9921 l0 -191 143 0 144 0 -4 78 c-6 100 -16 132 -63 191 -41
52 -114 94 -182 107 l-38 6 0 -191z"/>
<path d="M7830 9550 l0 -140 140 0 140 0 0 140 0 140 -140 0 -140 0 0 -140z"/>
<path d="M8140 9550 l0 -140 145 0 145 0 0 140 0 140 -145 0 -145 0 0 -140z"/>
<path d="M13090 9195 c-146 -41 -239 -182 -228 -345 9 -124 75 -227 176 -277
78 -38 200 -40 280 -4 66 30 144 113 166 177 21 63 21 187 -1 254 -22 69 -96
150 -163 179 -67 29 -160 35 -230 16z m163 -86 c90 -25 147 -115 147 -233 0
-89 -16 -135 -64 -182 -105 -105 -283 -78 -347 53 -33 68 -33 188 0 256 45 93
154 137 264 106z"/>
<path d="M14893 9195 c-135 -38 -219 -144 -230 -289 -9 -124 40 -241 126 -300
70 -49 110 -60 217 -60 93 -1 105 1 160 29 l59 31 3 132 3 132 -106 0 -106 0
3 -37 3 -38 58 -3 57 -3 0 -65 0 -65 -37 -16 c-59 -25 -162 -21 -220 9 -154
79 -162 349 -14 436 40 23 57 27 126 27 69 0 87 -4 129 -27 27 -16 52 -28 55
-28 4 0 17 14 30 31 22 29 22 31 4 45 -76 62 -218 88 -320 59z"/>
<path d="M16163 9200 c-90 -19 -168 -81 -214 -170 -21 -39 -24 -59 -24 -155 0
-96 3 -116 23 -153 37 -69 87 -117 154 -148 55 -25 75 -29 158 -29 88 0 101 3
163 33 l67 33 0 130 0 129 -106 0 -105 0 3 -37 3 -38 58 -3 58 -3 -3 -66 -3
-66 -40 -15 c-60 -21 -151 -19 -205 5 -86 39 -130 114 -130 222 0 162 78 245
230 246 64 0 84 -4 130 -28 l55 -29 22 27 c13 14 23 30 23 35 0 12 -51 47 -94
65 -45 19 -167 27 -223 15z"/>
<path d="M17238 9200 c-81 -24 -129 -83 -136 -165 -8 -101 46 -157 189 -199
84 -24 109 -48 109 -102 0 -37 -6 -51 -29 -75 -26 -25 -37 -29 -88 -29 -49 0
-68 5 -107 31 -53 33 -67 32 -92 -5 -16 -25 -15 -27 7 -46 57 -49 101 -64 184
-64 91 0 125 13 173 68 49 57 65 136 38 200 -19 45 -66 78 -154 110 -41 14
-82 31 -92 36 -58 31 -67 85 -21 131 40 39 114 41 178 3 49 -28 55 -27 73 16
12 29 11 32 -10 48 -60 43 -157 62 -222 42z"/>
<path d="M12070 8875 l0 -325 45 0 45 0 0 247 0 248 91 -165 c122 -223 134
-240 164 -240 30 0 42 18 160 237 l85 158 0 -242 0 -243 45 0 45 0 0 325 0
325 -48 0 -48 0 -119 -219 -120 -219 -26 47 c-14 25 -70 124 -123 219 l-97
172 -50 0 -49 0 0 -325z"/>
<path d="M13610 8875 l0 -325 56 0 55 0 -3 130 -3 130 45 0 45 -1 93 -129 93
-130 55 0 c30 0 54 3 54 7 0 4 -8 16 -18 27 -27 30 -182 244 -182 250 0 4 6 6
13 6 26 0 88 52 107 90 24 47 26 129 5 170 -20 38 -70 75 -120 89 -22 6 -97
11 -167 11 l-128 0 0 -325z m262 235 c49 -14 68 -43 68 -103 0 -41 -5 -53 -30
-77 -32 -30 -67 -40 -144 -40 l-51 0 0 115 0 115 60 0 c33 0 77 -5 97 -10z"/>
<path d="M14100 9160 l0 -40 105 0 105 0 0 -285 0 -285 50 0 50 0 0 285 0 285
105 0 105 0 0 40 0 40 -260 0 -260 0 0 -40z"/>
<path d="M15521 9178 c-11 -28 -240 -598 -248 -616 -4 -10 7 -12 48 -10 l54 3
31 80 32 80 142 0 142 0 27 -70 c35 -95 35 -95 91 -95 l48 0 -130 325 -130
325 -49 0 c-42 0 -51 -3 -58 -22z m115 -241 l51 -132 -105 -3 c-57 -1 -106 -1
-108 0 -5 5 101 276 106 271 2 -2 28 -63 56 -136z"/>
<path d="M16610 8875 l0 -325 199 0 199 0 6 31 c3 17 6 35 6 40 0 5 -70 9
-155 9 l-155 0 0 105 0 105 125 0 125 0 0 40 0 40 -125 0 -125 0 0 100 0 100
150 0 150 0 0 40 0 40 -200 0 -200 0 0 -325z"/>
<path d="M17830 8876 l0 -326 45 0 45 0 0 248 0 247 101 -180 c128 -230 125
-225 154 -225 29 0 38 13 160 235 48 88 88 161 89 162 1 1 0 -109 -2 -243 l-3
-244 46 0 45 0 0 325 0 325 -45 0 c-53 0 -36 23 -184 -248 l-105 -190 -121
217 -121 216 -52 3 -52 3 0 -325z"/>
<path d="M18837 9188 c-3 -7 -55 -139 -117 -293 -61 -154 -118 -293 -126 -309
-8 -16 -14 -31 -14 -33 0 -2 23 -3 52 -1 l52 3 32 80 32 80 140 3 140 3 28
-73 c15 -40 32 -78 36 -85 11 -14 110 -22 104 -8 -3 7 -220 551 -253 633 -3 7
-24 12 -53 12 -29 0 -50 -5 -53 -12z m109 -251 l51 -132 -53 -3 c-30 -2 -78
-2 -107 0 l-54 3 51 136 c28 75 53 135 56 132 3 -2 28 -64 56 -136z"/>
<path d="M19270 8875 l0 -327 173 4 c164 3 174 4 223 30 62 32 109 84 142 156
22 48 24 64 20 150 -3 75 -9 107 -26 139 -34 66 -78 110 -140 140 -54 27 -65
28 -224 31 l-168 4 0 -327z m320 228 c90 -29 140 -111 140 -231 0 -102 -43
-183 -120 -223 -14 -7 -73 -15 -135 -17 l-110 -4 0 246 0 246 86 0 c54 0 106
-6 139 -17z"/>
<path d="M19940 8875 l0 -325 205 0 205 0 0 40 0 40 -152 0 -153 0 0 105 0
105 123 0 122 0 0 40 0 40 -122 0 -123 0 0 100 0 100 153 0 152 0 0 40 0 40
-205 0 -205 0 0 -325z"/>
<path d="M20690 8876 l0 -326 154 0 c149 0 155 1 207 28 67 35 99 85 99 157 0
64 -28 110 -79 133 l-39 18 33 21 c93 61 83 206 -19 264 -37 22 -55 24 -198
27 l-158 4 0 -326z m285 230 c39 -17 55 -42 55 -89 0 -71 -64 -107 -190 -107
l-50 0 0 105 0 105 75 0 c43 0 90 -6 110 -14z m20 -280 c40 -17 55 -42 55 -91
0 -79 -43 -105 -175 -105 l-85 0 0 105 0 105 85 0 c51 0 99 -6 120 -14z"/>
<path d="M21270 8875 l0 -325 200 0 200 0 0 40 0 40 -152 0 -153 0 0 105 0
105 123 0 122 0 0 40 0 40 -122 0 -123 0 0 100 0 100 153 0 152 0 0 40 0 40
-200 0 -200 0 0 -325z"/>
<path d="M21710 9160 l0 -40 105 0 105 0 0 -285 0 -285 50 0 50 0 0 285 0 285
105 0 105 0 0 40 0 40 -260 0 -260 0 0 -40z"/>
<path d="M22240 9160 l0 -40 105 0 105 0 0 -285 0 -285 45 0 45 0 0 285 0 285
105 0 105 0 0 40 0 40 -255 0 -255 0 0 -40z"/>
<path d="M22830 8875 l0 -325 205 0 205 0 0 40 0 40 -155 0 -155 0 0 105 0
105 125 0 125 0 0 40 0 40 -125 0 -125 0 0 100 0 100 155 0 155 0 0 40 0 40
-205 0 -205 0 0 -325z"/>
<path d="M23350 8876 l0 -326 50 0 50 0 0 130 0 130 43 0 43 0 84 -116 c46
-64 90 -122 97 -130 15 -15 113 -20 113 -6 0 4 -45 67 -100 141 l-99 134 37
17 c139 62 147 256 14 322 -41 20 -65 23 -189 26 l-143 3 0 -325z m270 226
c44 -22 62 -56 56 -105 -8 -72 -65 -107 -173 -107 l-53 0 0 115 0 115 68 0
c44 0 79 -6 102 -18z"/>
</g>
</svg>
